<svg id="图层_1" data-name="图层 1" xmlns="http://www.w3.org/2000/svg" viewBox="0 0 120 120"><defs><style>.cls-1{fill:#c8e6c9;}.cls-2{fill:none;stroke:#000;stroke-miterlimit:10;}</style></defs><rect class="cls-1" x="42.17" y="35.3" width="53.73" height="50.36" transform="translate(55.24 -30.26) rotate(40.14)"/><path class="cls-1" d="M42.54,69,65.16,88l-8,9.5a1.8,1.8,0,0,1-2.55.22L34.75,81a1.8,1.8,0,0,1-.22-2.55l8-9.5m-.48-5.64L31.47,75.88a5.81,5.81,0,0,0,.7,8.19L52,100.81a5.81,5.81,0,0,0,8.19-.7L70.8,87.55,42.06,63.32Z"/><rect class="cls-2" x="38.01" y="30.02" width="53.73" height="50.36" transform="translate(50.86 -28.82) rotate(40.14)"/><path class="cls-2" d="M24.49,72.49H62.08a0,0,0,0,1,0,0V83.3a5.81,5.81,0,0,1-5.81,5.81h-26a5.81,5.81,0,0,1-5.81-5.81V72.49a0,0,0,0,1,0,0Z" transform="translate(62.28 -8.87) rotate(40.14)"/></svg>