<svg id="图层_1" data-name="图层 1" xmlns="http://www.w3.org/2000/svg" viewBox="0 0 120 120"><defs><style>.cls-1{fill:#c8e6c9;}.cls-2{fill:none;stroke:#000;stroke-miterlimit:10;}</style></defs><path class="cls-1" d="M98,65.61c-1.67-.16-3.36-.32-5-.44l-1.61-.12V85.71A9.4,9.4,0,0,1,82,95.09H42a9.4,9.4,0,0,1-9.39-9.38V47.31A9.4,9.4,0,0,1,42,37.92H62.5v-8H42A17.41,17.41,0,0,0,24.64,47.31v38.4A17.41,17.41,0,0,0,42,103.09H82A17.41,17.41,0,0,0,99.34,85.71v-20Z"/><path class="cls-1" d="M60.47,66.17C63,47.08,73.6,35.49,86.43,35.23V25.15l19.42,18.29L86.53,60l0-9.38C76.93,50.73,70.33,51.3,60.47,66.17Z"/><path class="cls-2" d="M95.7,61.36c-1.67-.15-3.36-.31-5-.44l-1.61-.12V81.46a9.4,9.4,0,0,1-9.39,9.39H39.76a9.4,9.4,0,0,1-9.39-9.39V43.06a9.4,9.4,0,0,1,9.39-9.39H60.23v-8H39.76A17.41,17.41,0,0,0,22.37,43.06v38.4A17.41,17.41,0,0,0,39.76,98.85H79.67A17.41,17.41,0,0,0,97.06,81.46v-20Z"/><path class="cls-2" d="M58.2,61.93c2.53-19.1,13.12-30.69,26-30.95V20.91l19.42,18.28L84.25,55.77l0-9.38C74.65,46.48,68.05,47.05,58.2,61.93Z"/></svg>