<svg id="图层_1" data-name="图层 1" xmlns="http://www.w3.org/2000/svg" viewBox="0 0 120 120"><defs><style>.cls-1{fill:#c8e6c9;}.cls-2{fill:#fff;}.cls-3{fill:none;stroke:#000;stroke-miterlimit:10;}</style></defs><rect class="cls-1" x="29.76" y="31.13" width="66.44" height="66.44"/><rect class="cls-1" x="25.26" y="26.63" width="9" height="9"/><path class="cls-2" d="M32.76,28.13v6h-6v-6h6m3-3h-12v12h12v-12Z"/><rect class="cls-1" x="91.71" y="26.63" width="9" height="9"/><path class="cls-2" d="M99.21,28.13v6h-6v-6h6m3-3h-12v12h12v-12Z"/><rect class="cls-1" x="25.26" y="93.07" width="9" height="9"/><path class="cls-2" d="M32.76,94.57v6h-6v-6h6m3-3h-12v12h12v-12Z"/><rect class="cls-1" x="91.71" y="93.07" width="9" height="9"/><path class="cls-2" d="M99.21,94.57v6h-6v-6h6m3-3h-12v12h12v-12Z"/><line class="cls-3" x1="93.34" y1="32.47" x2="93.34" y2="91.87"/><path d="M29.9,25.43v6h-6v-6h6m1-1h-8v8h8v-8Z"/><path d="M96.34,25.43v6h-6v-6h6m1-1h-8v8h8v-8Z"/><path d="M29.9,91.87v6h-6v-6h6m1-1h-8v8h8v-8Z"/><path d="M96.34,91.87v6h-6v-6h6m1-1h-8v8h8v-8Z"/><line class="cls-3" x1="26.9" y1="31.43" x2="26.9" y2="91.87"/><line class="cls-3" x1="29.9" y1="28.43" x2="90.34" y2="28.43"/><line class="cls-3" x1="90.34" y1="94.87" x2="29.9" y2="94.87"/></svg>