<svg id="图层_1" data-name="图层 1" xmlns="http://www.w3.org/2000/svg" viewBox="0 0 120 120"><defs><style>.cls-1{fill:#c8e6c9;}.cls-2{fill:none;stroke:#000;stroke-miterlimit:10;}</style></defs><path class="cls-1" d="M100.6,59.91c-2.34.19-4.67.41-7,.6A32.18,32.18,0,1,1,61.91,33.93h0v6.35l16-9.76-16-10.84v7.25a39.16,39.16,0,1,0,38.69,33Z"/><path class="cls-2" d="M97.93,57.45c-2.34.19-4.67.41-7,.6A32.18,32.18,0,1,1,59.24,31.47h0v6.35l16-9.75-16-10.85v7.25A39.19,39.19,0,1,0,98.42,63.66,39.73,39.73,0,0,0,97.93,57.45Z"/></svg>