<svg id="图层_1" data-name="图层 1" xmlns="http://www.w3.org/2000/svg" viewBox="0 0 120 120"><defs><style>.cls-1{fill:#c8e6c9;}.cls-2,.cls-3{fill:none;stroke-miterlimit:10;}.cls-2{stroke:#c8e6c9;stroke-width:4px;}.cls-3{stroke:#000;}</style></defs><rect class="cls-1" x="23.52" y="26.51" width="8.28" height="8.28" transform="translate(-13.59 28.78) rotate(-45.33)"/><path class="cls-1" d="M27.64,26.21l4.46,4.42L27.69,35.1l-4.47-4.42,4.42-4.47m0-2.82-1.41,1.42L21.8,29.27,20.39,30.7l1.42,1.4,4.47,4.42,1.42,1.4,1.41-1.42L33.52,32l1.41-1.43-1.42-1.4L29,24.79l-1.42-1.4Z"/><rect class="cls-1" x="94.59" y="96.73" width="8.28" height="8.28" transform="translate(-42.41 100.16) rotate(-45.32)"/><path class="cls-1" d="M98.71,96.43l4.46,4.41-4.41,4.47-4.47-4.41,4.42-4.47m0-2.83L97.28,95l-4.41,4.47-1.41,1.42,1.42,1.41,4.47,4.41,1.42,1.41,1.41-1.42,4.41-4.47,1.41-1.42-1.42-1.41L100.11,95,98.69,93.6Z"/><line class="cls-2" x1="29.89" y1="32.86" x2="96.48" y2="98.68"/><rect class="cls-3" x="21.85" y="20.2" width="6.28" height="6.28" transform="translate(-9.17 24.7) rotate(-45.33)"/><rect class="cls-3" x="92.92" y="90.41" width="6.28" height="6.28" transform="translate(-38 96.1) rotate(-45.33)"/><line class="cls-3" x1="27.22" y1="25.54" x2="93.81" y2="91.36"/></svg>