<svg id="图层_1" data-name="图层 1" xmlns="http://www.w3.org/2000/svg" viewBox="0 0 120 120"><defs><style>.cls-1{fill:#c8e6c9;}.cls-2{fill:#fff;}.cls-3{fill:none;stroke:#000;stroke-miterlimit:10;}</style></defs><rect class="cls-1" x="32.27" y="28.13" width="66.44" height="66.44"/><rect class="cls-1" x="27.77" y="23.63" width="9" height="9"/><path class="cls-2" d="M35.27,25.13v6h-6v-6h6m3-3h-12v12h12v-12Z"/><rect class="cls-1" x="94.22" y="23.63" width="9" height="9"/><path class="cls-2" d="M101.72,25.13v6h-6v-6h6m3-3h-12v12h12v-12Z"/><rect class="cls-1" x="27.77" y="90.07" width="9" height="9"/><path class="cls-2" d="M35.27,91.57v6h-6v-6h6m3-3h-12v12h12v-12Z"/><rect class="cls-1" x="94.22" y="90.07" width="9" height="9"/><path class="cls-2" d="M101.72,91.57v6h-6v-6h6m3-3h-12v12h12v-12Z"/><line class="cls-3" x1="95.85" y1="29.47" x2="95.85" y2="88.87"/><path d="M32.41,22.43v6h-6v-6h6m1-1h-8v8h8v-8Z"/><path d="M98.85,22.43v6h-6v-6h6m1-1h-8v8h8v-8Z"/><path d="M32.41,88.87v6h-6v-6h6m1-1h-8v8h8v-8Z"/><path d="M98.85,88.87v6h-6v-6h6m1-1h-8v8h8v-8Z"/><line class="cls-3" x1="29.41" y1="28.43" x2="29.41" y2="88.87"/><line class="cls-3" x1="32.41" y1="25.43" x2="92.85" y2="25.43"/><line class="cls-3" x1="92.85" y1="91.87" x2="32.41" y2="91.87"/></svg>