<svg id="图层_1" data-name="图层 1" xmlns="http://www.w3.org/2000/svg" viewBox="0 0 120 120"><defs><style>.cls-1{fill:#c8e6c9;}.cls-2,.cls-3{fill:none;stroke-miterlimit:10;}.cls-2{stroke:#c8e6c9;stroke-width:4px;}.cls-3{stroke:#000;}</style></defs><rect class="cls-1" x="25.19" y="29.99" width="8" height="8" transform="translate(-15.5 30.84) rotate(-45.32)"/><path class="cls-1" d="M29.16,29.75,33.43,34l-4.22,4.27L25,34l4.21-4.26m0-2.83-1.41,1.42-4.22,4.27L22.12,34l1.42,1.41,4.27,4.21,1.42,1.41,1.41-1.42,4.21-4.27L36.26,34l-1.42-1.41-4.27-4.22-1.42-1.4Z"/><rect class="cls-1" x="93.09" y="97.07" width="8" height="8" transform="translate(-43.04 99.05) rotate(-45.33)"/><path class="cls-1" d="M97.06,96.83l4.27,4.21-4.22,4.27-4.27-4.22,4.22-4.26M97,94l-1.4,1.42-4.22,4.27L90,101.11l1.43,1.41,4.26,4.21,1.43,1.41,1.4-1.42,4.22-4.27,1.41-1.42-1.43-1.41L98.47,95.4,97,94Z"/><line class="cls-2" x1="31.32" y1="36.1" x2="94.93" y2="98.98"/><rect class="cls-3" x="23.63" y="24" width="6" height="6" transform="translate(-11.29 26.96) rotate(-45.33)"/><rect class="cls-3" x="91.53" y="91.08" width="6" height="6" transform="translate(-38.83 95.17) rotate(-45.33)"/><line class="cls-3" x1="28.77" y1="29.1" x2="92.38" y2="91.98"/></svg>