<svg id="图层_1" data-name="图层 1" xmlns="http://www.w3.org/2000/svg" viewBox="0 0 120 120"><defs><style>.cls-1{fill:#c8e6c9;}.cls-2{fill:none;stroke:#000;stroke-miterlimit:10;}</style></defs><polygon class="cls-1" points="35.77 51.94 62.42 102.73 110.88 77.3 90.92 39.27 73.47 48.42 71.36 44.4 88.81 35.24 84.23 26.52 35.77 51.94"/><rect class="cls-1" x="86.05" y="31.81" width="19.71" height="4.55" transform="translate(-4.86 48.46) rotate(-27.68)"/><path class="cls-1" d="M50.79,44.07c-8.93-5.59-22.69-4.65-27.25,5.16s3,6.72,1,14.33,6.94,2.35,8-2.75-2.77-8.53-.09-10.51,6.61,0,6.61,0Z"/><polyline class="cls-2" points="83.23 33.05 78.66 24.32 30.2 49.75 56.84 100.53 105.3 75.1 85.35 37.07"/><rect class="cls-2" x="80.48" y="29.62" width="19.71" height="4.55" transform="translate(-4.47 45.62) rotate(-27.68)"/><path class="cls-2" d="M45.21,41.87C36.29,36.28,22.52,37.23,18,47s3,6.73,1,14.34,6.93,2.35,8-2.76-2.76-8.53-.09-10.51,6.62,0,6.62,0Z"/></svg>